<svg xmlns="http://www.w3.org/2000/svg" width="32" height="32" viewBox="0 0 32 32">
  <defs>
    <linearGradient id="grad1" x1="0%" y1="0%" x2="100%" y2="100%">
      <stop offset="0%" style="stop-color:#646cff;stop-opacity:1" />
      <stop offset="100%" style="stop-color:#ff64f2;stop-opacity:1" />
    </linearGradient>
  </defs>
  <circle cx="16" cy="16" r="16" fill="url(#grad1)" />
  <path d="M22,8 L12,8 C11.45,8 11,8.45 11,9 L11,21 C11,21.55 11.45,22 12,22 C12.55,22 13,21.55 13,21 L13,11 L21,11 L21,18 C21,18.55 21.45,19 22,19 C22.55,19 23,18.55 23,18 L23,9 C23,8.45 22.55,8 22,8 Z M11,21 C11,22.66 9.66,24 8,24 C6.34,24 5,22.66 5,21 C5,19.34 6.34,18 8,18 C9.66,18 11,19.34 11,21 Z M21,18 C21,19.66 19.66,21 18,21 C16.34,21 15,19.66 15,18 C15,16.34 16.34,15 18,15 C19.66,15 21,16.34 21,18 Z" fill="white" transform="translate(2, 2) scale(0.9)" />
</svg>